<svg id="Layer_1" data-name="Layer 1" xmlns="http://www.w3.org/2000/svg" viewBox="0 0 2000 2000"><defs><style>.cls-1{font-size:150px;font-family:DMSerifDisplay-Regular, DM Serif Display;}.cls-2{font-size:100px;font-family:MyriadPro-Regular, Myriad Pro;}</style></defs><text class="cls-1" transform="matrix(0.97, -0.26, 0.26, 0.97, 788.53, 281.61)">B</text><text class="cls-1" transform="translate(870.28 259.72) rotate(-8.96)">E</text><text class="cls-1" transform="translate(950.04 247.02) rotate(-3.09)">E</text><text class="cls-1" transform="matrix(1, 0.05, -0.05, 1, 1030.56, 242.24)">R</text><text class="cls-1" transform="translate(1115.01 246.17) rotate(9.35)">U</text><text class="cls-1" transform="matrix(0.96, 0.27, -0.27, 0.96, 1205.54, 261.28)">S</text><text class="cls-2" transform="translate(1279.17 282.39) rotate(18.92)"> </text><text class="cls-2" transform="translate(1298.6 289.04) rotate(20.43)"> </text><text class="cls-2" transform="matrix(0.93, 0.37, -0.37, 0.93, 1317.86, 296.21)"> </text><text class="cls-2" transform="translate(1336.92 303.87) rotate(23.45)"> </text><text class="cls-2" transform="translate(1355.77 312.04) rotate(24.95)"> </text><text class="cls-2" transform="translate(1374.39 320.69) rotate(26.46)"> </text><text class="cls-2" transform="translate(1392.79 329.84) rotate(27.97)"> </text><text class="cls-2" transform="translate(1410.94 339.47) rotate(29.47)"> </text><text class="cls-2" transform="translate(1428.84 349.58) rotate(30.97)"> </text><text class="cls-2" transform="matrix(0.84, 0.54, -0.54, 0.84, 1446.44, 360.13)"> </text><text class="cls-2" transform="matrix(0.83, 0.56, -0.56, 0.83, 1463.8, 371.16)"> </text><text class="cls-2" transform="matrix(0.81, 0.58, -0.58, 0.81, 1480.85, 382.64)"> </text><text class="cls-2" transform="translate(1497.58 394.55) rotate(36.96)"> </text><text class="cls-1" transform="translate(1513.96 405.33) rotate(40.86)">B</text><text class="cls-1" transform="matrix(0.69, 0.73, -0.73, 0.69, 1578.02, 460.63)">E</text><text class="cls-1" transform="translate(1633.45 519.39) rotate(52.62)">E</text><text class="cls-1" transform="translate(1682.74 583.18) rotate(58.89)">R</text><text class="cls-1" transform="matrix(0.42, 0.91, -0.91, 0.42, 1726.96, 655.25)">U</text><text class="cls-1" transform="translate(1765.29 738.63) rotate(71.22)">S</text><text class="cls-1" transform="matrix(0.26, 0.97, -0.97, 0.26, 1789.22, 811.22)"> </text><text class="cls-1" transform="translate(1797.35 841.84) rotate(77.5)"> </text><text class="cls-1" transform="translate(1804.23 872.77) rotate(79.82)"> </text><text class="cls-1" transform="translate(1809.85 903.95) rotate(82.14)"> </text><text class="cls-1" transform="translate(1814.2 935.34) rotate(84.45)"> </text><text class="cls-1" transform="matrix(0.06, 1, -1, 0.06, 1817.29, 966.89)"> </text><text class="cls-1" transform="translate(1819.11 998.57) rotate(89.03)"> </text><text class="cls-1" transform="translate(1819.67 1030.25) rotate(91.3)"> </text><text class="cls-1" transform="translate(1818.97 1061.97) rotate(93.58)"> </text><text class="cls-1" transform="translate(1817.01 1093.61) rotate(95.88)"> </text><text class="cls-1" transform="translate(1814.99 1124.43) rotate(100.21)">B</text><text class="cls-1" transform="matrix(-0.28, 0.96, -0.96, -0.28, 1800.09, 1207.72)">E</text><text class="cls-1" transform="translate(1777.7 1285.31) rotate(112.12)">E</text><text class="cls-1" transform="translate(1747.75 1360.16) rotate(118.43)">R</text><text class="cls-1" transform="matrix(-0.57, 0.82, -0.82, -0.57, 1708.06, 1434.78)">U</text><text class="cls-1" transform="matrix(-0.65, 0.76, -0.76, -0.65, 1655.61, 1510.15)">S</text><text class="cls-1" transform="matrix(-0.7, 0.71, -0.71, -0.7, 1605.26, 1567.65)"> </text><text class="cls-1" transform="translate(1583.02 1590.25) rotate(136.87)"> </text><text class="cls-1" transform="translate(1559.91 1611.93) rotate(139.17)"> </text><text class="cls-1" transform="translate(1535.94 1632.67) rotate(141.47)"> </text><text class="cls-1" transform="translate(1511.13 1652.44) rotate(143.78)"> </text><text class="cls-1" transform="matrix(-0.83, 0.56, -0.56, -0.83, 1485.58, 1671.19)"> </text><text class="cls-1" transform="matrix(-0.85, 0.52, -0.52, -0.85, 1459.29, 1688.89)"> </text><text class="cls-1" transform="translate(1432.31 1705.52) rotate(150.71)"> </text><text class="cls-1" transform="translate(1404.69 1721.03) rotate(153.03)"> </text><text class="cls-1" transform="translate(1376.45 1735.43) rotate(155.35)"> </text><text class="cls-1" transform="translate(1348.87 1749.35) rotate(159.71)">B</text><text class="cls-1" transform="translate(1269.56 1778.78) rotate(165.69)">E</text><text class="cls-1" transform="translate(1191.33 1798.87) rotate(171.61)">E</text><text class="cls-1" transform="matrix(-1, 0.04, -0.04, -1, 1111.63, 1811.06)">R</text><text class="cls-1" transform="translate(1027.14 1814.84) rotate(-175.97)">U</text><text class="cls-1" transform="translate(935.59 1808.18) rotate(-169.98)">S</text><text class="cls-1" transform="matrix(-0.97, -0.24, 0.24, -0.97, 860.45, 1794.17)"> </text><text class="cls-1" transform="translate(829.7 1786.54) rotate(-163.71)"> </text><text class="cls-1" transform="translate(799.26 1777.67) rotate(-161.37)"> </text><text class="cls-1" transform="translate(769.24 1767.57) rotate(-159.04)"> </text><text class="cls-1" transform="translate(739.66 1756.26) rotate(-156.72)"> </text><text class="cls-1" transform="matrix(-0.9, -0.43, 0.43, -0.9, 710.52, 1743.75)"> </text><text class="cls-1" transform="matrix(-0.88, -0.47, 0.47, -0.88, 681.95, 1730.07)"> </text><text class="cls-1" transform="translate(653.92 1715.24) rotate(-149.75)"> </text><text class="cls-1" transform="matrix(-0.84, -0.54, 0.54, -0.84, 626.55, 1699.3)"> </text><text class="cls-1" transform="translate(599.82 1682.26) rotate(-145.13)"> </text><text class="cls-1" transform="matrix(-0.8, -0.6, 0.6, -0.8, 573.8, 1664.14)"> </text><text class="cls-1" transform="translate(548.5 1646.39) rotate(-138.52)">B</text><text class="cls-1" transform="translate(485.04 1590.4) rotate(-132.61)">E</text><text class="cls-1" transform="translate(430.26 1531.05) rotate(-126.75)">E</text><text class="cls-1" transform="matrix(-0.51, -0.86, 0.86, -0.51, 381.66, 1466.71)">R</text><text class="cls-1" transform="translate(338.23 1394.18) rotate(-114.19)">U</text><text class="cls-1" transform="translate(300.81 1310.37) rotate(-108.15)">S</text><text class="cls-1" transform="matrix(-0.25, -0.97, 0.97, -0.25, 277.69, 1237.53)"> </text><text class="cls-1" transform="matrix(-0.21, -0.98, 0.98, -0.21, 269.9, 1206.83)"> </text><text class="cls-1" transform="translate(263.36 1175.81) rotate(-99.55)"> </text><text class="cls-1" transform="translate(258.08 1144.57) rotate(-97.24)"> </text><text class="cls-1" transform="matrix(-0.09, -1, 1, -0.09, 254.07, 1113.11)"> </text><text class="cls-1" transform="translate(251.33 1081.54) rotate(-92.64)"> </text><text class="cls-1" transform="translate(250.01 1050.08) rotate(-90.93)"> </text><text class="cls-1" transform="translate(249.63 1018.16) rotate(-88.09)"> </text><text class="cls-1" transform="translate(250.67 986.48) rotate(-85.8)"> </text><text class="cls-1" transform="matrix(0.15, -0.99, 0.99, 0.15, 251.79, 955.57)">B</text><text class="cls-1" transform="matrix(0.25, -0.97, 0.97, 0.25, 264.23, 871.88)">E</text><text class="cls-1" transform="translate(284.3 793.67) rotate(-69.58)">E</text><text class="cls-1" transform="translate(312.01 717.98) rotate(-63.27)">R</text><text class="cls-1" transform="matrix(0.54, -0.84, 0.84, 0.54, 349.49, 642.21)">U</text><text class="cls-1" transform="translate(399.69 565.34) rotate(-51.01)">S</text></svg>